<svg xmlns="http://www.w3.org/2000/svg" width="24" height="24" viewBox="0 0 24 24" fill="none" stroke="currentColor" stroke-width="2" stroke-linecap="round" stroke-linejoin="round">
  <path d="M0 0h24v24H0z" stroke="none"/>
  <path d="M12 2C6.48 2 2 6.48 2 12s4.48 10 10 10 10-4.48 10-10S17.52 2 12 2zm0 16H5a1 1 0 0 1-1-1v-4a1 1 0 0 1 1-1h2a1 1 0 0 1 1 1v3h3a1 1 0 0 1 1 1v2a1 1 0 0 1-1 1zm1-8h-2V5a1 1 0 0 0-1-1H8a1 1 0 0 0-1 1v5H5a1 1 0 0 0-1 1v2a1 1 0 0 0 1 1h2v3a1 1 0 0 0 1 1h2a1 1 0 0 0 1-1v-3h2a1 1 0 0 0 1-1V9a1 1 0 0 0-1-1z"/>
</svg>
