<svg xmlns="http://www.w3.org/2000/svg" width="1.23em" height="1em" viewBox="0 0 24 24" fill="none" stroke="currentColor" stroke-width="2" stroke-linecap="round" stroke-linejoin="round">
  <path d="M0 0h24v24H0z" stroke="none"/>
  <path
    d="M7.765 19.313c-1.06.377-2.263.587-3.52.587C2.61 20.9 2 20.29 2 19.54c0-.668.23-1.312.65-1.826L0 14.833c-.16-.16-.164-.32-.13-.504 1.06-4.7 4.6-8.467 9.377-9.593-.03-.063-.057-.12-.078-.186l-2.84-6.6a.488.488 0 0 1-.03-.218c.05-.156.156-.296.313-.365l5.727-2.31c.154-.06.29-.027.407.09.09.092.15.236.164.398l1.363 8.314c.027.166.02.33-.036.487-.032.12-.1.226-.192.316l-1.94 1.94a12.47 12.47 0 0 1-4.55-1.075zm-.086-2.22l.775-.774c.267-.267.48-.573.64-.913l1.076-4.13a.9.9 0 0 0-.246-.895c-.306-.306-.676-.535-1.083-.68a.857.857 0 0 0-.683.157l-3.964 2.06a.9.9 0 0 0-.458.44l-.924 2.14 2.14-.924a.9.9 0 0 0 .44-.457zm-6.088 2.243l.815-.816-.278-1.695a.9.9 0 0 0-.272-.43L2.79 8.95l-.735.295 2.542 2.542zm12.07-5.55l-.33.135-.85.85-.136.33a10.616 10.616 0 0 1-.468 1.033c-.142.28-.347.526-.606.735l-1.085 1.085-.85.85-3.097 1.277 1.28-3.096.85-.85 1.085-1.085c.21-.258.456-.464.735-.606a10.616 10.616 0 0 1 1.034-.468l.33-.137 3.814-1.572zM8.18 16.89l-.733.294.294-.733.44-1.064-.77.306-.305.77.464-1.06zm3.856-1.663l-.85.85-1.942-1.942.85-.85 1.94 1.942z"
  />
</svg>
